<?xml version="1.0" encoding="UTF-8"?>
<svg xmlns="http://www.w3.org/2000/svg" xmlns:xlink="http://www.w3.org/1999/xlink" viewBox="0 0 682.76 303">
  <defs>
    <style>
      .cls-1 {
        fill: url(#linear-gradient-2);
      }

      .cls-2 {
        fill: url(#linear-gradient-17);
      }

      .cls-3 {
        fill: url(#linear-gradient-15);
      }

      .cls-4 {
        fill: url(#linear-gradient-18);
      }

      .cls-5 {
        fill: url(#linear-gradient-28);
      }

      .cls-6 {
        fill: url(#linear-gradient-14);
      }

      .cls-7 {
        fill: url(#linear-gradient-20);
      }

      .cls-8 {
        fill: url(#linear-gradient-6);
      }

      .cls-9 {
        fill: url(#linear-gradient-11);
      }

      .cls-10 {
        fill: #f7bb26;
        opacity: .29;
      }

      .cls-11 {
        fill: url(#linear-gradient-10);
      }

      .cls-12 {
        fill: url(#linear-gradient-16);
      }

      .cls-13 {
        fill: #0085d6;
      }

      .cls-14 {
        fill: url(#linear-gradient-31);
      }

      .cls-15 {
        fill: #045aa4;
      }

      .cls-16 {
        fill: url(#linear-gradient-21);
      }

      .cls-17 {
        fill: url(#linear-gradient-25);
      }

      .cls-18 {
        fill: url(#linear-gradient-5);
      }

      .cls-19 {
        fill: url(#linear-gradient-7);
      }

      .cls-20 {
        fill: url(#linear-gradient-24);
      }

      .cls-21 {
        fill: url(#linear-gradient-9);
      }

      .cls-22 {
        fill: url(#linear-gradient-22);
      }

      .cls-23 {
        fill: url(#linear-gradient-3);
      }

      .cls-24 {
        fill: url(#linear-gradient);
      }

      .cls-25 {
        fill: url(#linear-gradient-27);
      }

      .cls-26 {
        fill: url(#linear-gradient-29);
      }

      .cls-27 {
        fill: url(#linear-gradient-30);
      }

      .cls-28 {
        fill: url(#linear-gradient-23);
      }

      .cls-29 {
        fill: url(#linear-gradient-19);
      }

      .cls-30 {
        fill: url(#linear-gradient-4);
      }

      .cls-31 {
        fill: url(#linear-gradient-8);
      }

      .cls-32 {
        fill: url(#linear-gradient-12);
      }

      .cls-33 {
        fill: url(#linear-gradient-13);
      }

      .cls-34 {
        fill: url(#linear-gradient-26);
      }
    </style>
    <linearGradient id="linear-gradient" x1="13.06" y1="290.8" x2="13.06" y2="245.35" gradientUnits="userSpaceOnUse">
      <stop offset="0" stop-color="#c39445"/>
      <stop offset=".12" stop-color="#c49647"/>
      <stop offset=".2" stop-color="#c89f4e"/>
      <stop offset=".26" stop-color="#cfad5b"/>
      <stop offset=".28" stop-color="#d3b663"/>
      <stop offset=".33" stop-color="#d4b864"/>
      <stop offset=".36" stop-color="#d9c06b"/>
      <stop offset=".37" stop-color="#e0cd76"/>
      <stop offset=".38" stop-color="#e8d980"/>
      <stop offset=".42" stop-color="#e2c86f"/>
      <stop offset=".46" stop-color="#ddba61"/>
      <stop offset=".52" stop-color="#dab259"/>
      <stop offset=".62" stop-color="#dab057"/>
      <stop offset=".62" stop-color="#d9af56"/>
      <stop offset=".69" stop-color="#c59a48"/>
      <stop offset=".76" stop-color="#b78c3d"/>
      <stop offset=".85" stop-color="#af8337"/>
      <stop offset="1" stop-color="#ad8136"/>
    </linearGradient>
    <linearGradient id="linear-gradient-2" x1="42.31" y1="290.8" x2="42.31" y2="245.35" xlink:href="#linear-gradient"/>
    <linearGradient id="linear-gradient-3" x1="61.84" y1="290.8" x2="61.84" y2="245.35" xlink:href="#linear-gradient"/>
    <linearGradient id="linear-gradient-4" x1="83.23" y1="290.8" x2="83.23" y2="245.35" xlink:href="#linear-gradient"/>
    <linearGradient id="linear-gradient-5" x1="113.38" y1="290.8" x2="113.38" y2="245.35" xlink:href="#linear-gradient"/>
    <linearGradient id="linear-gradient-6" x1="135.93" y1="290.8" x2="135.93" y2="245.35" xlink:href="#linear-gradient"/>
    <linearGradient id="linear-gradient-7" x1="157.32" y1="290.8" x2="157.32" y2="245.35" xlink:href="#linear-gradient"/>
    <linearGradient id="linear-gradient-8" x1="187.47" y1="290.8" x2="187.47" y2="245.35" xlink:href="#linear-gradient"/>
    <linearGradient id="linear-gradient-9" x1="229.98" y1="290.8" x2="229.98" y2="245.35" xlink:href="#linear-gradient"/>
    <linearGradient id="linear-gradient-10" x1="259.93" y1="290.8" x2="259.93" y2="245.35" xlink:href="#linear-gradient"/>
    <linearGradient id="linear-gradient-11" x1="290.56" y1="290.8" x2="290.56" y2="245.35" xlink:href="#linear-gradient"/>
    <linearGradient id="linear-gradient-12" x1="321.59" y1="290.8" x2="321.59" y2="245.35" xlink:href="#linear-gradient"/>
    <linearGradient id="linear-gradient-13" x1="360.88" y1="290.8" x2="360.88" y2="245.35" xlink:href="#linear-gradient"/>
    <linearGradient id="linear-gradient-14" x1="382.19" y1="290.8" x2="382.19" y2="245.35" xlink:href="#linear-gradient"/>
    <linearGradient id="linear-gradient-15" x1="402.42" y1="290.8" x2="402.42" y2="245.35" xlink:href="#linear-gradient"/>
    <linearGradient id="linear-gradient-16" x1="422.64" y1="290.8" x2="422.64" y2="245.35" xlink:href="#linear-gradient"/>
    <linearGradient id="linear-gradient-17" x1="444.41" y1="290.8" x2="444.41" y2="245.35" xlink:href="#linear-gradient"/>
    <linearGradient id="linear-gradient-18" x1="474.85" y1="290.8" x2="474.85" y2="245.35" xlink:href="#linear-gradient"/>
    <linearGradient id="linear-gradient-19" x1="503.76" y1="290.8" x2="503.76" y2="245.35" xlink:href="#linear-gradient"/>
    <linearGradient id="linear-gradient-20" x1="541.5" y1="290.8" x2="541.5" y2="245.35" xlink:href="#linear-gradient"/>
    <linearGradient id="linear-gradient-21" x1="569.61" y1="290.8" x2="569.61" y2="245.35" xlink:href="#linear-gradient"/>
    <linearGradient id="linear-gradient-22" x1="609.4" y1="290.8" x2="609.4" y2="245.35" xlink:href="#linear-gradient"/>
    <linearGradient id="linear-gradient-23" x1="626.65" y1="290.8" x2="626.65" y2="245.35" xlink:href="#linear-gradient"/>
    <linearGradient id="linear-gradient-24" x1="646.65" y1="290.8" x2="646.65" y2="245.35" xlink:href="#linear-gradient"/>
    <linearGradient id="linear-gradient-25" x1="672.38" y1="290.8" x2="672.38" y2="245.35" xlink:href="#linear-gradient"/>
    <linearGradient id="linear-gradient-26" x1="191.64" y1="39.74" x2="171.39" y2="31.57" gradientUnits="userSpaceOnUse">
      <stop offset="0" stop-color="#c39445"/>
      <stop offset=".07" stop-color="#c79c4b"/>
      <stop offset=".17" stop-color="#d3b25f"/>
      <stop offset=".29" stop-color="#e6d67e"/>
      <stop offset=".3" stop-color="#e8d980"/>
      <stop offset=".31" stop-color="#e7d77e"/>
      <stop offset=".45" stop-color="#ddba61"/>
      <stop offset=".53" stop-color="#dab057"/>
      <stop offset=".55" stop-color="#d0a650"/>
      <stop offset=".6" stop-color="#c09544"/>
      <stop offset=".67" stop-color="#b5893c"/>
      <stop offset=".75" stop-color="#ae8237"/>
      <stop offset="1" stop-color="#ad8136"/>
    </linearGradient>
    <linearGradient id="linear-gradient-27" x1="577.02" y1="245.34" x2="276.35" y2="-67.77" gradientUnits="userSpaceOnUse">
      <stop offset=".15" stop-color="#e8d981" stop-opacity="0"/>
      <stop offset=".23" stop-color="#e8d981" stop-opacity=".03"/>
      <stop offset=".34" stop-color="#e8d981" stop-opacity=".11"/>
      <stop offset=".48" stop-color="#e8d981" stop-opacity=".24"/>
      <stop offset=".63" stop-color="#e8d981" stop-opacity=".42"/>
      <stop offset=".79" stop-color="#e8d981" stop-opacity=".66"/>
      <stop offset=".97" stop-color="#e8d981" stop-opacity=".94"/>
      <stop offset="1" stop-color="#e8d982"/>
    </linearGradient>
    <linearGradient id="linear-gradient-28" x1="467.03" y1="141.08" x2="528.64" y2="134.6" gradientUnits="userSpaceOnUse">
      <stop offset="0" stop-color="#c39445"/>
      <stop offset=".11" stop-color="#c59949"/>
      <stop offset=".25" stop-color="#cca957"/>
      <stop offset=".34" stop-color="#d3b663"/>
      <stop offset=".39" stop-color="#d4b864"/>
      <stop offset=".41" stop-color="#d8bf6a"/>
      <stop offset=".42" stop-color="#e0cb74"/>
      <stop offset=".43" stop-color="#e8d980"/>
      <stop offset=".51" stop-color="#debd64"/>
      <stop offset=".56" stop-color="#dab057"/>
      <stop offset=".75" stop-color="#c69b49"/>
      <stop offset="1" stop-color="#ad8136"/>
    </linearGradient>
    <linearGradient id="linear-gradient-29" x1="512.99" y1="116.19" x2="459.12" y2="122.58" gradientUnits="userSpaceOnUse">
      <stop offset="0" stop-color="#c39445"/>
      <stop offset=".12" stop-color="#c49647"/>
      <stop offset=".2" stop-color="#c89f4e"/>
      <stop offset=".26" stop-color="#cfad5b"/>
      <stop offset=".28" stop-color="#d3b663"/>
      <stop offset=".33" stop-color="#d4b864"/>
      <stop offset=".36" stop-color="#d9c06b"/>
      <stop offset=".37" stop-color="#e0cd76"/>
      <stop offset=".38" stop-color="#e8d980"/>
      <stop offset=".41" stop-color="#e2c86f"/>
      <stop offset=".43" stop-color="#ddba61"/>
      <stop offset=".47" stop-color="#dab259"/>
      <stop offset=".53" stop-color="#dab057"/>
      <stop offset=".55" stop-color="#d0a650"/>
      <stop offset=".6" stop-color="#c09544"/>
      <stop offset=".67" stop-color="#b5893c"/>
      <stop offset=".75" stop-color="#ae8237"/>
      <stop offset="1" stop-color="#ad8136"/>
    </linearGradient>
    <linearGradient id="linear-gradient-30" x1="532.12" y1="168.89" x2="596.69" y2="85.47" gradientUnits="userSpaceOnUse">
      <stop offset="0" stop-color="#c39445"/>
      <stop offset=".17" stop-color="#d3b663"/>
      <stop offset=".3" stop-color="#d4b864"/>
      <stop offset=".36" stop-color="#d8bf6a"/>
      <stop offset=".4" stop-color="#e0cb74"/>
      <stop offset=".43" stop-color="#e8d980"/>
      <stop offset=".51" stop-color="#debd64"/>
      <stop offset=".56" stop-color="#dab057"/>
      <stop offset=".75" stop-color="#c69b49"/>
      <stop offset="1" stop-color="#ad8136"/>
    </linearGradient>
    <linearGradient id="linear-gradient-31" x1="536.79" y1="135.9" x2="577.06" y2="105.69" gradientUnits="userSpaceOnUse">
      <stop offset="0" stop-color="#c39445"/>
      <stop offset=".06" stop-color="#c69a4a"/>
      <stop offset=".14" stop-color="#cead5b"/>
      <stop offset=".17" stop-color="#d3b663"/>
      <stop offset=".24" stop-color="#d5b966"/>
      <stop offset=".31" stop-color="#dcc570"/>
      <stop offset=".38" stop-color="#e8d980"/>
      <stop offset=".42" stop-color="#e2c86f"/>
      <stop offset=".46" stop-color="#ddba61"/>
      <stop offset=".52" stop-color="#dab259"/>
      <stop offset=".62" stop-color="#dab057"/>
      <stop offset=".62" stop-color="#d9af56"/>
      <stop offset=".69" stop-color="#c59a48"/>
      <stop offset=".76" stop-color="#b78c3d"/>
      <stop offset=".85" stop-color="#af8337"/>
      <stop offset="1" stop-color="#ad8136"/>
    </linearGradient>
  </defs>
  <g id="Layer_1" data-name="Layer 1">
    <path class="cls-10" d="m579.24,111.05c-2.39,1.17-4.87,1.98-7.46,2.31s-5.2.61-7.79.82c-15.61,1.2-23.4,7.86-26.99,23.19-.39,1.64-1.1,3.32-.54,5.45,8.28-8.08,18.68-12.09,27.73-18.22-1.17,2.16-3.26,3.34-5.16,4.63-3.76,2.55-7.64,4.92-11.44,7.42-4.65,3.07-8.33,6.72-11.09,10.96-3.24,4.98-4.7,10.88-5.16,12.57-.26.98-1.59,6.04-1.59,6.04-.15-.89-.34-2.09-.56-3.52-.08-.52-.13-.9-.14-.93-1.93-13.75-8.58-24.49-20.34-31.98-3.92-2.53-7.89-4.97-11.76-7.55-3.55-2.35-7-4.88-9.38-8.58,10.42,9.6,24.8,13.22,34.86,23.47-.44-6.26-2.09-11.98-4.79-17.4-4.28-8.58-11.41-13.3-20.66-15.08-8.39-1.61-17.19-.75-25.7-4.81.99,7.92,2.77,14.89,5.76,21.56,3.56,7.93,9.13,13.45,17.92,15.28,2.88.61,5.7,1.54,8.54,2.34,1.52.42,8.25,2.49,13.18,6.82,7.83,6.88,9.12,17.78,10.14,26.4.15,1.3.25,2.49.32,3.62h4.4c.16-3.37.49-6.28.84-8.6.93-6.05,3.67-11.75,8.19-15.89,3.85-3.52,8.78-6,14.9-7.32,1.32-.28,2.63-.75,3.92-1.13,11.88-3.53,21.65-19.06,19.82-31.84Z"/>
  </g>
  <g id="Layer_3" data-name="Layer 3">
    <g>
      <polygon class="cls-13" points="392.13 132.11 392.13 153.45 356.84 153.45 356.84 180.88 335.51 166.92 335.51 153.45 314.97 153.45 301.65 144.74 301.65 132.11 392.13 132.11"/>
      <path class="cls-13" d="m428.66,211.21v-79.83h-21.34v82.58l28.4,18.6h51.55v-21.34h-58.61Z"/>
      <path class="cls-13" d="m592.82,168.31h80.79v21.34h-59.46v42.91h-21.33v-42.91h0v-21.34Zm0-14.87v-21.33h89.75v21.33h-89.75Z"/>
    </g>
  </g>
  <g id="Layer_4" data-name="Layer 4">
    <g>
      <path class="cls-15" d="m89.09,182.5c0,27.6,22.45,50.05,50.05,50.05s50.05-22.45,50.05-50.05-22.45-50.05-50.05-50.05-50.05,22.45-50.05,50.05Zm79.21,0c0,16.08-13.08,29.16-29.16,29.16s-29.16-13.08-29.16-29.16,13.08-29.16,29.16-29.16,29.16,13.08,29.16,29.16Z"/>
      <path class="cls-15" d="m206.82,147.41c-2.62,4.58-4,9.8-4,15.11s1.38,10.53,4,15.11c1.18,2.06,2.58,3.94,4.16,5.64,5.7,6.11,13.76,9.71,22.3,9.71h28.84c5.03,0,9.12,4.09,9.12,9.12s-4.09,9.12-9.12,9.12h-32.87c-3.22-1.1-5.54-4.16-5.54-7.75h-20.89c0,2.68.36,5.29,1.04,7.75,3.39,12.3,14.66,21.33,28.04,21.33h30.22c10.89,0,21.03-5.88,26.45-15.35,2.62-4.58,4-9.8,4-15.11s-1.39-10.53-4-15.11c-5.42-9.47-15.56-15.35-26.45-15.35h-28.84c-5.03,0-9.12-4.09-9.12-9.12s4.09-9.12,9.12-9.12h33.39c3.22,1.1,5.54,4.16,5.54,7.75h20.89c0-2.68-.36-5.28-1.04-7.75-3.39-12.3-14.66-21.33-28.04-21.33h-30.74c-10.9,0-21.03,5.88-26.46,15.35Z"/>
      <polygon class="cls-15" points="356.84 180.88 335.51 166.92 335.51 232.55 356.84 232.55 356.84 180.88"/>
      <polygon class="cls-15" points="301.65 144.74 301.65 153.45 314.97 153.45 301.65 144.74"/>
      <polygon class="cls-15" points="407.32 213.96 407.32 232.55 435.72 232.55 407.32 213.96"/>
      <path class="cls-15" d="m6.82,179.61v-26.15h42.65v.03h3.62s.05-.01.05-.01c.14-.01.3-.01.48-.01,4.01,0,7.29,3.27,7.29,7.29s-3.28,7.29-7.29,7.29H21.33v-.05h-8.67v64.55h8.67v-43.08h34.42s.63-.03,4.38-.94c3.74-.92,3.95-1.13,3.95-1.13,3.95-1.56,7.56-3.98,10.52-7.15,4.93-5.32,7.65-12.25,7.65-19.49,0-12.51-8.04-23.24-19.32-27.09,0,0-1.51-.47-3.58-.87-2.08-.39-4.37-.68-4.37-.68H6.82v-40.11c0-25.59,13.38-49.63,34.91-62.72l.58-.34c28.37-16.89,73.77-12.56,74.23-12.51,4.12.42,8.22,1,12.3,1.74-1.22,4.53-1.39,9.28-.22,13.63.45,1.68,1.47,2.81,3.06,3.48,9.44,3.98,18.87,7.98,28.31,11.97,1.49.63,2.99,1.23,4.76,1.96-1.21-2.1-2.25-3.9-3.26-5.66,3.88-9.17,7.71-18.24,11.56-27.35,2.03-.52,4.02-1.02,6.38-1.62-4.87-2.06-13.27-5.63-17.87-7.57-2.12-.89-8.12-3.32-14-5.71-.76-.31-1.52-.62-2.27-.92-.3-.11-.6-.24-.9-.37,0,0-.01,0-.02,0-1.54.43-3.85,1.57-4.02,1.66h-.01c-3.73,2.43-6.78,5.98-8.95,10.05-4.7-.89-9.42-1.59-14.17-2.07-1.94-.19-48.09-4.62-78.39,13.43l-.63.38C14.64,37.79,0,64.06,0,92v140.54h6.82v-52.93Z"/>
      <path class="cls-15" d="m42.66,253.12l42.66.57,85.32.71c56.88.46,113.76.53,170.64.59l85.32-.13c28.44-.15,56.88-.16,85.32-.45l85.32-.71,42.66-.57,21.33-.29,21.33-.38-21.33-.38-21.33-.29-42.66-.57-85.32-.71c-28.44-.29-56.88-.3-85.32-.45l-85.32-.13c-56.88.06-113.76.13-170.64.59l-85.32.7-42.66.57-21.33.29-21.33.38,21.33.38,21.33.29Z"/>
      <path class="cls-15" d="m639.91,299.79l-42.66-.57-85.32-.71c-28.44-.29-56.88-.3-85.32-.45l-85.32-.13c-56.88.06-113.76.13-170.64.59l-85.32.7-42.66.57-21.33.29-21.33.38,21.33.38,21.33.29,42.66.57,85.32.7c56.88.46,113.76.53,170.64.59l85.32-.13c28.44-.15,56.88-.16,85.32-.45l85.32-.71,42.66-.57,21.33-.29,21.33-.38-21.33-.38-21.33-.29Z"/>
      <path class="cls-15" d="m196.63,42.28c-2.56,6.04-6.76,10.55-12.99,13.2,3.87,5.32,7.66,10.53,11.59,15.94,7.15-16.93,14.19-33.58,21.32-50.47-6.61.95-12.99,1.87-19.5,2.81,2.4,6.33,2.13,12.48-.42,18.52Z"/>
      <path class="cls-15" d="m162.99,43.47c2.83,4.84,5.64,9.62,8.58,14.63.6-1.43,1.2-2.86,1.8-4.27.19-.44.38-.88.55-1.32,4.82-11.4,9.58-22.66,14.38-34.04.19-.45.39-.91.58-1.37.54-1.29,1.09-2.57,1.63-3.86-5.68,1.4-11.09,2.74-16.49,4.07-3.71,8.77-7.37,17.44-11.04,26.15Z"/>
      <path class="cls-15" d="m188.71,74.18c.07-.08.15-.16.22-.24-2.49-5.92-4.98-11.84-7.5-17.81-2.62.67-5.12.65-7.65.24-.67,1.55-1.3,3-2.04,4.7-1.46-2.45-2.76-4.66-4.21-7.1-1.38,3.3-2.66,6.36-4,9.56,8.46,3.57,16.82,7.1,25.17,10.63Z"/>
      <path class="cls-15" d="m190.81,16.12c2.35,1.62,4.05,3.68,5.48,6.04,5.89-2.3,11.65-4.56,17.82-6.97-8.72-3.69-17.09-7.22-25.57-10.8-1.26,2.97-2.47,5.8-3.77,8.86,2.76-.66,5.25-1.26,8.01-1.93-.74,1.8-1.35,3.29-1.97,4.8Z"/>
      <path class="cls-15" d="m175.06,53.5c-.2.34-.55.7-.36,1.25.95.21,1.9.25,2.85.21.91-.04,1.83-.09,2.71-.28,13.04-2.82,20.86-19.74,14.59-31.51-1.14-2.13-2.62-3.95-4.65-5.37-.36.42-.51.8-.57,1.26,6.29,5.84,7.27,12.94,4.56,20.48-3.15,8.77-9.14,14.2-19.14,13.96Z"/>
    </g>
  </g>
  <g id="Layer_5" data-name="Layer 5">
    <g>
      <path class="cls-24" d="m14.72,289.92H1.79v-25.11h12.68c5.8,0,8.77,3.38,8.77,7.25,0,1.98-.78,3.72-2.36,4.77v.03c2.05.71,3.44,2.73,3.44,5.46,0,4.74-3.6,7.6-9.61,7.6Zm-.56-20.4h-7.6l.5.5v4.34l-.5.47h7.6c3.04,0,3.72-1.27,3.72-2.7,0-1.58-.9-2.6-3.72-2.6Zm.56,9.7H6.57l.5.5v4.99l-.5.5h8.15c3.41,0,4.25-1.21,4.25-2.95s-.99-3.04-4.25-3.04Z"/>
      <path class="cls-1" d="m54.56,289.92h-5.92l-3.44-6.64c-1.02-1.95-2.45-2.82-5.36-2.82h-4.99l.5.47v8.99h-5.27v-25.11h12.15c4.99,0,9.61,2.48,9.61,7.84,0,2.67-2.05,5.08-4.28,6.11v.06c.84.37,1.86,1.3,2.54,2.61l4.46,8.5Zm-12.34-20.4h-7.38l.5.46v5.49l-.5.5h7.07c3.22,0,4.56-1.55,4.56-3.19,0-2.14-1.49-3.25-4.25-3.25Z"/>
      <path class="cls-23" d="m64.47,289.92h-5.27v-25.11h5.27v25.11Z"/>
      <path class="cls-30" d="m94.7,289.92h-4.43l-11.32-13.83-1.86-2.95h-.06v16.77h-5.27v-25.11h4.43l11.44,13.83,1.74,2.85h.06v-16.68h5.27v25.11Z"/>
      <path class="cls-18" d="m126.01,289.95h-4.56v-2.39c-1.49,1.58-4.43,2.67-7.32,2.67-8.5,0-13.39-4.96-13.39-12.65s5.02-13.08,13.58-13.08c4.03,0,7.81,1.21,10.39,3.88l-3.63,3.66c-1.77-2.05-4.09-2.85-6.76-2.85-5.61,0-8.22,3.07-8.22,8.4s2.48,7.97,8.03,7.97c3.88,0,6.57-2.26,6.91-5.36l.53-.5h-8.71v-4.68h13.15v14.95Z"/>
      <path class="cls-8" d="m138.56,289.92h-5.27v-25.11h5.27v25.11Z"/>
      <path class="cls-19" d="m168.79,289.92h-4.43l-11.32-13.83-1.86-2.95h-.06v16.77h-5.27v-25.11h4.43l11.44,13.83,1.74,2.85h.06v-16.68h5.27v25.11Z"/>
      <path class="cls-31" d="m200.1,289.95h-4.56v-2.39c-1.49,1.58-4.43,2.67-7.32,2.67-8.5,0-13.39-4.96-13.39-12.65s5.02-13.08,13.58-13.08c4.03,0,7.81,1.21,10.39,3.88l-3.63,3.66c-1.77-2.05-4.09-2.85-6.76-2.85-5.61,0-8.22,3.07-8.22,8.4s2.48,7.97,8.03,7.97c3.88,0,6.57-2.26,6.91-5.36l.53-.5h-8.71v-4.68h13.15v14.95Z"/>
      <path class="cls-21" d="m243.9,264.8l-11.26,14.76v10.36h-5.3v-10.36l-11.29-14.76h6.6l5.83,7.91,1.46,2.48h.06l1.46-2.48,5.86-7.91h6.57Z"/>
      <path class="cls-11" d="m259.93,290.23c-8.46,0-12.93-5.24-12.93-12.71s4.46-13.02,12.93-13.02,12.93,5.55,12.93,13.02-4.59,12.71-12.93,12.71Zm0-21.02c-5.33,0-7.57,3.47-7.57,8.31s2.23,8,7.57,8,7.57-3.32,7.57-8-2.17-8.31-7.57-8.31Z"/>
      <path class="cls-9" d="m302.37,278.35c0,7.5-3.78,11.88-11.78,11.88s-11.84-4.31-11.84-11.88v-13.55h5.27v13.52c0,4.74,1.74,7.19,6.54,7.19s6.54-2.45,6.54-7.19v-13.52h5.27v13.55Z"/>
      <path class="cls-32" d="m333.83,289.92h-5.92l-3.44-6.64c-1.02-1.95-2.45-2.82-5.36-2.82h-4.99l.5.47v8.99h-5.27v-25.11h12.15c4.99,0,9.61,2.48,9.61,7.84,0,2.67-2.05,5.08-4.28,6.11v.06c.84.37,1.86,1.3,2.54,2.61l4.46,8.5Zm-12.34-20.4h-7.38l.5.46v5.49l-.5.5h7.07c3.22,0,4.56-1.55,4.56-3.19,0-2.14-1.49-3.25-4.25-3.25Z"/>
      <path class="cls-33" d="m374.6,264.8l-11.38,25.11h-4.68l-11.38-25.11h5.86l7.07,16.12.77,2.51h.06l.81-2.51,7.07-16.12h5.8Z"/>
      <path class="cls-6" d="m384.82,289.92h-5.27v-25.11h5.27v25.11Z"/>
      <path class="cls-3" d="m402.81,290.23c-4.46,0-8.77-1.39-11.94-4.43l3.66-3.66c2.57,2.33,5.55,3.41,8.46,3.41,4.12,0,5.61-1.3,5.61-2.7,0-.81-.71-2.05-4-2.85-.56-.12-4.06-.99-4.65-1.15-4.46-1.15-8.46-2.82-8.46-7.07,0-4,3.81-7.29,11.01-7.29,4.5,0,8.22,1.52,10.94,4.31l-3.69,3.66c-1.74-1.98-4.4-3.29-7.32-3.29-4.09,0-5.58,1.3-5.58,2.48,0,1.05,1.15,1.71,5.21,2.73.56.16,3.47.9,4.06,1.02,5.24,1.27,7.84,4,7.84,7.35,0,3.88-3.41,7.47-11.16,7.47Z"/>
      <path class="cls-12" d="m425.28,289.92h-5.27v-25.11h5.27v25.11Z"/>
      <path class="cls-2" d="m444.41,290.23c-8.46,0-12.93-5.24-12.93-12.71s4.46-13.02,12.93-13.02,12.93,5.55,12.93,13.02-4.59,12.71-12.93,12.71Zm0-21.02c-5.33,0-7.57,3.47-7.57,8.31s2.23,8,7.57,8,7.57-3.32,7.57-8-2.17-8.31-7.57-8.31Z"/>
      <path class="cls-4" d="m486.32,289.92h-4.43l-11.32-13.83-1.86-2.95h-.06v16.77h-5.27v-25.11h4.43l11.44,13.83,1.74,2.85h.06v-16.68h5.27v25.11Z"/>
      <path class="cls-29" d="m504.14,290.23c-4.46,0-8.77-1.39-11.94-4.43l3.66-3.66c2.57,2.33,5.55,3.41,8.46,3.41,4.12,0,5.61-1.3,5.61-2.7,0-.81-.71-2.05-4-2.85-.56-.12-4.06-.99-4.65-1.15-4.46-1.15-8.46-2.82-8.46-7.07,0-4,3.81-7.29,11.01-7.29,4.5,0,8.22,1.52,10.94,4.31l-3.69,3.66c-1.74-1.98-4.4-3.29-7.32-3.29-4.09,0-5.58,1.3-5.58,2.48,0,1.05,1.15,1.71,5.21,2.73.56.16,3.47.9,4.06,1.02,5.24,1.27,7.84,4,7.84,7.35,0,3.88-3.41,7.47-11.16,7.47Z"/>
      <path class="cls-7" d="m552.81,269.52h-8.96l.28.5v19.91h-5.27v-19.91l.28-.5h-8.96v-4.71h22.63v4.71Z"/>
      <path class="cls-16" d="m569.61,290.23c-8.46,0-12.93-5.24-12.93-12.71s4.46-13.02,12.93-13.02,12.93,5.55,12.93,13.02-4.59,12.71-12.93,12.71Zm0-21.02c-5.33,0-7.57,3.47-7.57,8.31s2.23,8,7.57,8,7.57-3.32,7.57-8-2.17-8.31-7.57-8.31Z"/>
      <path class="cls-22" d="m619.06,289.92h-19.32v-25.11h5.27v19.94l-.46.46h14.51v4.71Z"/>
      <path class="cls-28" d="m629.29,289.92h-5.27v-25.11h5.27v25.11Z"/>
      <path class="cls-20" d="m656.73,269.52h-15.38l.5.46v5.08l-.5.5,13.86.03v4.68h-13.86l.5.5v9.15h-5.27v-25.11h20.15v4.71Z"/>
      <path class="cls-17" d="m682.76,289.92h-20.77v-25.11h20.77v4.71h-16l.5.5v4.5l-.5.5h14.51v4.71h-14.51l.5.5v4.5l-.5.5h16v4.71Z"/>
    </g>
  </g>
  <g id="Layer_6" data-name="Layer 6">
    <path class="cls-34" d="m192.46,38.55c-3.09,8.59-8.91,13.98-18.53,13.97,4.82-11.4,9.58-22.66,14.38-34.04,5.91,5.76,6.79,12.7,4.15,20.07Z"/>
    <path class="cls-25" d="m656.05,112.17l-158.48,160.69-67.31-44.09-26.96-17.65-47.91-31.39-20.24-13.25-19.5-12.78-12.64-8.27-123-98.03c-.23-1.41-.52-4.46.79-7.94,1.5-3.99,4.23-6.23,5.37-7.07,156.31,26.22,313.55,53.57,469.87,79.79Z"/>
  </g>
  <g id="Layer_7" data-name="Layer 7">
    <path class="cls-5" d="m531.57,175.47h-4.41c-.07-1.13-.16-2.32-.32-3.62-1.02-8.62-2.31-19.52-10.14-26.4-4.93-4.33-11.65-6.39-13.18-6.82-2.84-.79-5.66-1.72-8.54-2.33-8.79-1.82-14.36-7.35-17.92-15.28-2.99-6.68-4.77-13.65-5.76-21.56,0,0,6.56,6.92,16.28,13.83h0s0,0,0,0h0c2.38,3.7,5.82,6.22,9.36,8.58,3.87,2.59,7.83,5.02,11.76,7.56,11.76,7.5,18.41,18.24,20.34,31.98,0,.03.06.41.14.93.22,1.43.41,2.63.55,3.52,0,0,.53,5.67,1.82,9.61Z"/>
    <path class="cls-26" d="m522.45,136.75c-9.86-10.05-23.87-13.72-34.24-22.91-.07-.06-.13-.12-.19-.17-.03-.03-.06-.05-.08-.07-.13-.12-.23-.2-.28-.26-.02-.02-.03-.03-.05-.05t0,0s0,0,0,0h0c-9.71-6.91-16.28-13.83-16.28-13.83,8.5,4.06,17.31,3.2,25.69,4.81,9.25,1.78,16.37,6.5,20.66,15.08,2.7,5.43,4.34,11.14,4.79,17.4Z"/>
    <path class="cls-27" d="m579.24,110.69c-3.58,5.55-15.05,13.55-15.05,13.55-1.17,2.16-3.25,3.34-5.16,4.63-3.76,2.55-7.64,4.93-11.44,7.42-4.64,3.06-8.33,6.72-11.09,10.96-3.25,4.98-4.7,10.88-5.16,12.57-.26.98-1.59,6.04-1.59,6.04,0,0,.53,5.67,1.82,9.61.16-3.36.49-6.28.84-8.6.93-6.05,3.67-11.76,8.19-15.89,3.85-3.52,8.78-6,14.9-7.32,1.32-.28,2.63-.75,3.92-1.13,11.88-3.54,21.65-19.06,19.82-31.85Z"/>
    <path class="cls-14" d="m579.24,110.69c-3.58,5.55-15.05,13.55-15.05,13.55-9.04,6.13-19.45,10.14-27.73,18.22-.56-2.13.15-3.81.54-5.45,3.59-15.33,11.38-22,26.99-23.19,2.59-.21,5.2-.49,7.79-.82,2.59-.33,5.06-1.14,7.45-2.31Z"/>
  </g>
  <g id="Layer_8" data-name="Layer 8">
    <g>
      <path class="cls-13" d="m548.96,189.63v13.16h-38.08v-13.16h38.08Z"/>
      <path class="cls-13" d="m510.84,179.68s-1.01-4.45-1.53-10.75h41.29c-.5,6.19-1.51,10.75-1.51,10.75h-38.25Z"/>
      <path class="cls-13" d="m547.5,181.51v6.3h-34.62c-.96-2.67-.32-3.4-.36-6.3h34.97Z"/>
      <path class="cls-13" d="m547.33,218.59v5.82h-34.55c-.95-2.51-.49-2.94-.41-5.82,5.91,0,11.67,0,17.44,0s11.4,0,17.52,0Z"/>
      <path class="cls-13" d="m541.58,225.74v6.84h-23.47c-.78-3.03-.25-3.63-.3-6.84h23.77Z"/>
      <g>
        <path class="cls-13" d="m528.29,204.78c1.24-.42,2.16-.41,3.33-.02v12.12c-1.13.52-2.13.47-3.33-.02v-12.08Z"/>
        <path class="cls-13" d="m526,216.92c-1.24.39-2.15.45-3.31-.02v-12.1c1.12-.5,2.13-.46,3.31.02v12.1Z"/>
        <path class="cls-13" d="m533.95,204.92c1.12-.69,2.02-.37,3.13-.35v12.25c-1.02.68-1.99.4-3.13.16v-12.06Z"/>
        <path class="cls-13" d="m539.52,204.86c1.11-.63,2.11-.32,3.29-.28v12.2c-1.11.66-2.1.6-3.29.07v-11.99Z"/>
        <path class="cls-13" d="m520.45,204.62v12.02c-.9.95-1.97.57-3.25.42v-12.16c.78-.84,1.86-.35,3.25-.29Z"/>
        <path class="cls-13" d="m546.56,204.58c2.17,2.77.56,6.38.93,9.53.14,1.23.78,3.4-2.19,2.87v-12.18c.42-.07.84-.15,1.25-.22Z"/>
        <path class="cls-13" d="m514.55,217.18c-2.38-.98-2.4-.98-2.13-9.71.04-1.19-.65-3.1,2.13-2.77v12.48Z"/>
      </g>
    </g>
  </g>
</svg>